<svg xmlns="http://www.w3.org/2000/svg" width="100%" height="100%" viewBox="0 0 1200 380"><defs><linearGradient id="bgGradient" x1="0%" x2="100%" y1="0%" y2="100%"><stop offset="0%" stop-color="#0b0f19"/><stop offset="50%" stop-color="#111827"/><stop offset="100%" stop-color="#1f2937"/></linearGradient><linearGradient id="cyanPurple" x1="0%" x2="100%" y1="0%" y2="0%"><stop offset="0%" stop-color="#06b6d4"/><stop offset="100%" stop-color="#8b5cf6"/></linearGradient><linearGradient id="orangeYellow" x1="0%" x2="100%" y1="0%" y2="0%"><stop offset="0%" stop-color="#f59e0b"/><stop offset="100%" stop-color="#ef4444"/></linearGradient><linearGradient id="laserBeam" x1="0%" x2="100%" y1="0%" y2="0%"><stop offset="0%" stop-color="rgba(6, 182, 212, 0)"/><stop offset="50%" stop-color="rgba(6, 182, 212, 0.8)"/><stop offset="100%" stop-color="rgba(6, 182, 212, 0)"/></linearGradient><filter id="glowCyan" width="140%" height="140%" x="-20%" y="-20%"><feGaussianBlur result="blur" stdDeviation="6"/><feComposite in="SourceGraphic" in2="blur" operator="over"/></filter><filter id="glowOrange" width="140%" height="140%" x="-20%" y="-20%"><feGaussianBlur result="blur" stdDeviation="8"/><feComposite in="SourceGraphic" in2="blur" operator="over"/></filter><style>@keyframes scanline{0%{transform:translateY(0);opacity:.3}50%{transform:translateY(220px);opacity:.9}}@keyframes pulseGlow{0%{opacity:.4;filter:drop-shadow(0 0 5px #06b6d4)}50%{opacity:.9;filter:drop-shadow(0 0 15px #3b82f6)}}@keyframes floatCard1{0%{transform:translateY(0)}50%{transform:translateY(-8px)}}@keyframes floatCard2{0%{transform:translateY(0)}50%{transform:translateY(8px)}}@keyframes barGrow{0%{width:140px}50%{width:190px}}.scan-line{animation:scanline 6s ease-in-out infinite}.pulsing-grid{animation:pulseGlow 4s ease-in-out infinite}.card-float-1{animation:floatCard1 5s ease-in-out infinite}.card-float-2{animation:floatCard2 6s ease-in-out infinite}.bar-dynamic{animation:barGrow 4s ease-in-out infinite}</style></defs><rect width="1200" height="380" fill="url(#bgGradient)" rx="16"/><g stroke="rgba(255, 255, 255, 0.05)" stroke-width="1" class="pulsing-grid"><line x1="0" x2="1200" y1="60" y2="60"/><line x1="0" x2="1200" y1="120" y2="120"/><line x1="0" x2="1200" y1="180" y2="180"/><line x1="0" x2="1200" y1="240" y2="240"/><line x1="0" x2="1200" y1="300" y2="300"/><line x1="150" x2="150" y1="0" y2="380"/><line x1="300" x2="300" y1="0" y2="380"/><line x1="450" x2="450" y1="0" y2="380"/><line x1="600" x2="600" y1="0" y2="380"/><line x1="750" x2="750" y1="0" y2="380"/><line x1="900" x2="900" y1="0" y2="380"/><line x1="1050" x2="1050" y1="0" y2="380"/></g><g opacity=".85" transform="translate(760, 40)"><polygon fill="rgba(6, 182, 212, 0.08)" stroke="#06b6d4" stroke-dasharray="4 4" stroke-width="1.5" points="120 40 240 90 240 210 120 160"/><polygon fill="rgba(139, 92, 246, 0.08)" stroke="#8b5cf6" stroke-dasharray="4 4" stroke-width="1.5" points="120 40 0 90 0 210 120 160"/><polygon fill="rgba(245, 158, 11, 0.12)" stroke="#f59e0b" stroke-width="1.5" points="120 40 240 90 120 130 0 90"/><rect width="280" height="4" x="-20" y="30" fill="url(#laserBeam)" class="scan-line" filter="url(#glowCyan)"/><g class="card-float-1" transform="translate(140, 30)"><rect width="160" height="42" x="0" y="0" fill="rgba(17, 24, 39, 0.85)" stroke="#06b6d4" stroke-width="1.5" rx="10"/><circle cx="20" cy="21" r="6" fill="#10b981" filter="url(#glowCyan)"/><text x="35" y="18" fill="#9ca3af" font-family="system-ui, sans-serif" font-size="10" font-weight="600">BIM ALIGNMENT</text><text x="35" y="32" fill="#38bdf8" font-family="system-ui, sans-serif" font-size="13" font-weight="700">98.4% Matched</text></g><g class="card-float-2" transform="translate(-40, 180)"><rect width="175" height="42" x="0" y="0" fill="rgba(17, 24, 39, 0.85)" stroke="#f59e0b" stroke-width="1.5" rx="10"/><circle cx="20" cy="21" r="6" fill="#f59e0b" filter="url(#glowOrange)"/><text x="35" y="18" fill="#9ca3af" font-family="system-ui, sans-serif" font-size="10" font-weight="600">REALITY CAPTURE</text><text x="35" y="32" fill="#fbbf24" font-family="system-ui, sans-serif" font-size="13" font-weight="700">360° AI Scan Active</text></g><g transform="translate(20, 245)"><rect width="220" height="8" x="0" y="0" fill="#374151" rx="4"/><rect width="160" height="8" x="0" y="0" fill="url(#cyanPurple)" class="bar-dynamic" rx="4"/></g></g><rect width="670" height="290" x="45" y="45" fill="rgba(11, 15, 25, 0.75)" stroke="rgba(255, 255, 255, 0.08)" stroke-width="1" rx="16"/><g><g transform="translate(75, 80) translate(0, 0)"><rect width="265" height="28" x="0" y="0" fill="url(#cyanPurple)" opacity=".9" rx="14"/><text x="14" y="18" fill="#fff" font-family="system-ui, -apple-system, sans-serif" font-size="12" font-weight="800" letter-spacing=".5">🏗️ CONSTRUCTION TECH ECOSYSTEM</text></g><text x="0" y="70" fill="#fff" font-family="system-ui, -apple-system, sans-serif" font-size="34" font-weight="900" letter-spacing="-.5" transform="translate(75, 80)">Awesome Construction</text><text x="0" y="112" fill="url(#cyanPurple)" font-family="system-ui, -apple-system, sans-serif" font-size="34" font-weight="900" letter-spacing="-.5" transform="translate(75, 80)">Progress Monitoring 🚀</text><text x="0" y="152" fill="#d1d5db" font-family="system-ui, -apple-system, sans-serif" font-size="15" font-weight="400" transform="translate(75, 80)">Curated List of SaaS Platforms, 360° Reality Capture,</text><text x="0" y="174" fill="#9ca3af" font-family="system-ui, -apple-system, sans-serif" font-size="15" font-weight="400" transform="translate(75, 80)">AI Deviation Tracking, 4D BIM Alignment &amp; Open-Source Tools</text><g transform="translate(75, 80) translate(0, 205)"><rect width="115" height="26" x="0" y="0" fill="#1f2937" stroke="#374151" rx="6"/><text x="10" y="17" fill="#38bdf8" font-family="system-ui, sans-serif" font-size="11" font-weight="600">📊 SaaS Pricing</text><rect width="135" height="26" x="125" y="0" fill="#1f2937" stroke="#374151" rx="6"/><text x="135" y="17" fill="#a78bfa" font-family="system-ui, sans-serif" font-size="11" font-weight="600">⭐ Open-Source</text><rect width="125" height="26" x="270" y="0" fill="#1f2937" stroke="#374151" rx="6"/><text x="280" y="17" fill="#f43f5e" font-family="system-ui, sans-serif" font-size="11" font-weight="600">📐 4D BIM &amp; AI</text></g></g></svg>